<svg version="1.1" viewBox="0.0 0.0 960.0 540.0" fill="none" stroke="none" stroke-linecap="square" stroke-miterlimit="10" xmlns:xlink="http://www.w3.org/1999/xlink" xmlns="http://www.w3.org/2000/svg"><clipPath id="g1175e8d2bb0_0_19.0"><path d="m0 0l960.0 0l0 540.0l-960.0 0l0 -540.0z" clip-rule="nonzero"/></clipPath><g clip-path="url(#g1175e8d2bb0_0_19.0)"><path fill="#ffffff" d="m0 0l960.0 0l0 540.0l-960.0 0z" fill-rule="evenodd"/><path fill="#434343" d="m421.22104 270.0001l0 0c0 -32.0412 25.988647 -58.01573 58.04727 -58.01573l0 0c15.395081 0 30.159607 6.1123505 41.045593 16.992416c10.885986 10.880066 17.001648 25.636597 17.001648 41.023315l0 0c0 32.04123 -25.988647 58.015747 -58.04724 58.015747l0 0c-32.058624 0 -58.04727 -25.974518 -58.04727 -58.015747z" fill-rule="evenodd"/><path stroke="#000000" stroke-width="4.0" stroke-linejoin="round" stroke-linecap="butt" d="m421.22104 270.0001l0 0c0 -32.0412 25.988647 -58.01573 58.04727 -58.01573l0 0c15.395081 0 30.159607 6.1123505 41.045593 16.992416c10.885986 10.880066 17.001648 25.636597 17.001648 41.023315l0 0c0 32.04123 -25.988647 58.015747 -58.04724 58.015747l0 0c-32.058624 0 -58.04727 -25.974518 -58.04727 -58.015747z" fill-rule="evenodd"/><path fill="#000000" fill-opacity="0.0" d="m420.97638 217.7087l118.04724 0.09448242l0 92.25197l-118.04724 -0.09448242z" fill-rule="evenodd"/><path fill="#ffffff" d="m506.82352 284.3774l-7.328125 -0.005859375l0 -19.53125q0 -4.859375 -1.609375 -7.1262817q-1.59375 -2.266922 -4.65625 -2.2693634q-3.0625 -0.002456665 -5.703125 2.2923126q-2.625 2.2947693 -3.6875 5.96579l0 20.65625l-7.34375 -0.005859375l0 -19.53125q0 -4.8594055 -1.5937195 -7.1262817q-1.59375 -2.2669067 -4.59375 -2.2693176q-3.078125 -0.002456665 -5.71875 2.2610474q-2.625 2.2635193 -3.75 5.9188843l0 20.734375l-7.328125 -0.005859375l0 -34.85939l6.65625 0.0053253174l0 7.0q2.0625 -3.6702118 5.421875 -5.6362762q3.375 -1.9660492 7.71875 -1.9625702q4.3280945 0.0034637451 6.8280945 2.2867126q2.5 2.267624 3.09375 5.658722q2.265625 -3.8575592 5.5625 -5.8861694q3.3125 -2.04422 7.578125 -2.0408173q3.0625 0.002456665 5.125 1.1447296q2.0625 1.142273 3.1875 3.1119232q1.140625 1.9540405 1.640625 4.5325775q0.5 2.5628967 0.5 5.4222717l0 21.265625z" fill-rule="nonzero"/></g></svg>